<mxfile host="app.diagrams.net" modified="2023-07-10T20:44:43.185Z" agent="Mozilla/5.0 (Windows NT 10.0; Win64; x64) AppleWebKit/537.36 (KHTML, like Gecko) Chrome/114.0.0.0 Safari/537.36" etag="yisBCdCRKp18daXTex6E" version="21.6.1" type="github">
  <diagram name="Page-1" id="C2-kn6_zhQWia_zSazgH">
    <mxGraphModel dx="474" dy="795" grid="1" gridSize="10" guides="1" tooltips="1" connect="1" arrows="1" fold="1" page="1" pageScale="1" pageWidth="827" pageHeight="1169" math="0" shadow="0">
      <root>
        <mxCell id="0" />
        <mxCell id="1" parent="0" />
        <mxCell id="f-8WjbWECAZfCv-CKSNm-9" style="edgeStyle=orthogonalEdgeStyle;rounded=0;orthogonalLoop=1;jettySize=auto;html=1;exitX=1;exitY=0.25;exitDx=0;exitDy=0;entryX=0.75;entryY=0;entryDx=0;entryDy=0;" edge="1" parent="1" source="f-8WjbWECAZfCv-CKSNm-1" target="f-8WjbWECAZfCv-CKSNm-8">
          <mxGeometry relative="1" as="geometry" />
        </mxCell>
        <mxCell id="f-8WjbWECAZfCv-CKSNm-11" style="edgeStyle=orthogonalEdgeStyle;rounded=0;orthogonalLoop=1;jettySize=auto;html=1;exitX=0;exitY=0.75;exitDx=0;exitDy=0;entryX=0.75;entryY=0;entryDx=0;entryDy=0;" edge="1" parent="1" source="f-8WjbWECAZfCv-CKSNm-1" target="f-8WjbWECAZfCv-CKSNm-2">
          <mxGeometry relative="1" as="geometry" />
        </mxCell>
        <mxCell id="f-8WjbWECAZfCv-CKSNm-1" value="InventorySystem" style="rounded=0;whiteSpace=wrap;html=1;" vertex="1" parent="1">
          <mxGeometry x="170" y="170" width="120" height="60" as="geometry" />
        </mxCell>
        <mxCell id="f-8WjbWECAZfCv-CKSNm-6" style="edgeStyle=orthogonalEdgeStyle;rounded=0;orthogonalLoop=1;jettySize=auto;html=1;exitX=0.25;exitY=0;exitDx=0;exitDy=0;entryX=0;entryY=0.25;entryDx=0;entryDy=0;" edge="1" parent="1" source="f-8WjbWECAZfCv-CKSNm-2" target="f-8WjbWECAZfCv-CKSNm-1">
          <mxGeometry relative="1" as="geometry" />
        </mxCell>
        <mxCell id="f-8WjbWECAZfCv-CKSNm-2" value="Database" style="rounded=0;whiteSpace=wrap;html=1;" vertex="1" parent="1">
          <mxGeometry x="40" y="290" width="120" height="60" as="geometry" />
        </mxCell>
        <mxCell id="f-8WjbWECAZfCv-CKSNm-10" style="edgeStyle=orthogonalEdgeStyle;rounded=0;orthogonalLoop=1;jettySize=auto;html=1;exitX=0.25;exitY=0;exitDx=0;exitDy=0;entryX=1;entryY=0.75;entryDx=0;entryDy=0;" edge="1" parent="1" source="f-8WjbWECAZfCv-CKSNm-8" target="f-8WjbWECAZfCv-CKSNm-1">
          <mxGeometry relative="1" as="geometry" />
        </mxCell>
        <mxCell id="f-8WjbWECAZfCv-CKSNm-8" value="Browser" style="rounded=0;whiteSpace=wrap;html=1;" vertex="1" parent="1">
          <mxGeometry x="290" y="290" width="120" height="60" as="geometry" />
        </mxCell>
      </root>
    </mxGraphModel>
  </diagram>
</mxfile>
